<svg width="32" height="32" viewBox="0 0 32 32" fill="none" xmlns="http://www.w3.org/2000/svg">
<path fill-rule="evenodd" clip-rule="evenodd" d="M29.3443 10H29.6658C30.9529 10 32 11.0467 32 12.3333V19.6667C32 20.9533 30.9529 22 29.6658 22H29.3443V22.3333C29.3443 24.356 27.6984 26 25.6763 26H3.66804C1.64595 26 0 24.356 0 22.3333V9.66667C0 7.644 1.64595 6 3.66804 6H25.6763C27.6984 6 29.3443 7.644 29.3443 9.66667V10ZM8.33646 22C8.88867 22 9.33683 21.552 9.33683 21V11C9.33683 10.448 8.88867 10 8.33646 10H5.00188C4.44967 10 4.0015 10.448 4.0015 11V21C4.0015 21.552 4.44967 22 5.00188 22H8.33646ZM17.3398 21C17.3398 21.552 16.8917 22 16.3395 22H13.0049C12.4527 22 12.0045 21.552 12.0045 21V11C12.0045 10.448 12.4527 10 13.0049 10H16.3395C16.8917 10 17.3398 10.448 17.3398 11V21ZM24.3425 22C24.8947 22 25.3428 21.552 25.3428 21V11C25.3428 10.448 24.8947 10 24.3425 10H21.0079C20.4557 10 20.0075 10.448 20.0075 11V21C20.0075 21.552 20.4557 22 21.0079 22H24.3425Z" fill="white"/>
</svg>
