<svg width="32" height="32" viewBox="0 0 32 32" fill="none" xmlns="http://www.w3.org/2000/svg">
<path fill-rule="evenodd" clip-rule="evenodd" d="M18.3893 16.0008L24.3636 10.0015C24.7118 9.65275 24.8847 9.16519 24.8372 8.67458C24.7885 8.18336 24.5219 7.73962 24.114 7.46449L16.5169 2.35206C16.0099 2.00997 15.3507 1.9771 14.812 2.2638C14.2727 2.5511 13.9251 3.11232 13.9251 3.72223V11.6639L9.97527 7.67084C9.33248 7.02319 8.29648 7.01893 7.64883 7.66049C7.00118 8.30327 6.99631 9.34962 7.63909 9.99727L13.5921 15.9996L7.63909 22.0014C6.99631 22.6484 7.00118 23.6948 7.64883 24.3388C8.29648 24.9809 9.33309 24.9773 9.97527 24.3284L13.9251 20.3354V28.2764C13.9251 28.8869 14.2727 29.4481 14.812 29.7348C15.3507 30.0221 16.0099 29.9887 16.5169 29.646L24.1134 24.5354C24.5225 24.2596 24.7885 23.8153 24.8366 23.3253C24.884 22.8341 24.7112 22.3477 24.363 21.9977L18.3893 16.0008ZM17.2778 6.82719L20.636 9.08727L17.2778 12.4588V6.82719ZM17.2778 19.5434V25.1751L20.636 22.915L17.2778 19.5434Z" fill="white"/>
</svg>
